<?xml version="1.0" encoding="UTF-8"?>
<svg id="Layer_2" xmlns="http://www.w3.org/2000/svg" viewBox="0 0 1450.14 1332.74">
  <defs>
    <style>
      .cls-1 {
        fill: #ffffff;
      }

      .cls-2 {
        fill: #ffffff;
      }
    </style>
  </defs>
  <g id="Layer_1-2" data-name="Layer_1">
    <g>
      <path class="cls-1" d="M1009.96,316.74c-9.99-1.97-19.94-4.19-29.97-5.86-32.06-5.34-64.33-8.45-96.87-8.43-23.72,0-47.44-.14-71.13,1.74-41.96,3.35-83.14,10.48-123.31,23.36-22.64,7.26-44.44,16.52-66.14,26.09-14.73,6.49-27.28,16.56-40.72,25.16-8.41,5.38-16.45,11.32-25.23,16.13-3.76,2.06-6.9,4.86-9.91,7.89-24.08,24.34-46.75,49.92-67.47,77.18-4.06,5.34-7.48,11.21-10.82,17.04-10.56,18.42-19.93,37.38-27.98,57.09-10.05,24.58-17.45,49.96-24.27,75.5-2.94,11.02-3.73,22.63-5.38,33.99-3.92,26.97-6.27,54.04-5.24,81.33.07,1.99.21,3.98.35,5.97,0,.1.38.16,1.11.46,1.15-8.92,2.26-17.7,3.43-26.48,3.62-27.2,6.33-54.55,13.66-81.15,2.19-7.97,4.77-15.75,7.69-23.46,5.31-14.01,10.88-27.92,15.68-42.1,6.24-18.42,16.62-34.59,26.42-51.11,10.23-17.24,22.27-33.07,35.46-48.16,6.56-7.51,12.81-15.28,20.79-21.72-2.95,4.49-5.87,9.01-8.87,13.47-11.79,17.58-23.12,35.63-30.9,55.22-15.13,38.14-26.51,77.56-31.43,118.41-3.82,31.75-4.17,63.72-2.77,95.72,1.25,28.35,6.72,55.95,12.99,83.47,2,8.79,4.4,17.43,7.69,25.81,1.32,3.36,2.47,6.87,5.51,10.36,1.38-3.13.98-5.58.99-7.91.07-15.98.18-31.97.09-47.95-.14-23.98.87-47.94,2.89-71.81,1.18-13.89,4.31-27.61,6.37-41.43,3.35-22.45,13.06-42.89,20-64.21,2.01-6.17,4.6-12.16,6.5-18.35,4.47-14.57,12.33-27.24,21.71-39.01,9.16-11.51,16.66-24.34,27.33-34.64,17.77-17.16,38.05-30.48,60.5-40.88,32.98-15.27,67.79-22.05,103.78-23.09,14.7-.42,29.33,2.2,43.94,4.13,23.37,3.09,46.15,8.37,68.46,15.88,4.74,1.59,9.41,3.26,13.84,5.64,4.8,2.58,5.1,2.58,8.69-1.92,11.35-14.26,23.57-27.78,35.31-41.7,28-33.19,54.42-67.68,82.9-100.48,4.98-5.74,4.93-5.74,10.51-1.11,12.11,10.06,23.74,20.65,34.88,31.76,25.41,25.31,47.06,53.51,65.71,84.18,21.33,35.08,36.77,72.54,47.14,112.11,5.83,22.25,9.16,45.02,11.37,67.9,4.36,45.13.57,89.7-9.09,133.94-6.42,29.42-15.54,57.91-28.53,85.02-9.7,20.25-20.53,39.94-33.01,58.69-18.64,28.01-40.69,53.06-65.27,75.92-19.43,18.06-40.66,33.83-62.76,48.45-2.02,1.34-4,3.05-7.49,3.05-1.35-4.52-2.77-9.23-4.16-13.96-8.51-28.99-16-58.32-25.8-86.87-11.26-32.8-23.01-65.49-36.97-97.3-8.02-18.29-16.11-36.56-24-54.9-1.6-3.71-4.08-6.08-7.64-7.74-26.24-12.25-52.41-24.65-78.68-36.83-29.67-13.75-59.42-27.31-89.14-40.97-2.26-1.04-4.43-2.23-7.07-4.79,20.32,6.09,39.7,11.68,58.91,17.79,6,1.91,10.15,1.83,15.26-2.95,10.67-9.99,23.99-14.71,38.63-16.25,19.01-2,37.34.98,55.36,6.52,24.86,7.65,49.01,17.12,72.08,29.23,3.31,1.74,6.48,3.76,9.63,5.76.77.49,1.25,1.45,1.86,2.19-1.5,2.18-3.29.99-4.86.74-6.41-1.01-12.78-2.24-19.2-3.17-5.3-.77-5.83-.25-5.28,4.9,1.04,9.68,3.08,19.35,3.1,29.02.02,10.43,4.86,16.94,12.76,22.68,10.12,7.35,17.11,17.5,21.44,29.08,4.95,13.22,3.67,26.48-2.09,39.34-1.82,4.06-4.23,7.89-3.95,12.71.18,3.04,1.19,5.25,3.75,6.83,13.63,8.44,25.09,19.68,37.76,29.36,3.96,3.03,7.71,6.34,11.58,9.49,1.33,1.08,2.76,2.61,4.6,1.41,1.4-.92.96-2.68.81-4.14-.8-7.95-1.59-15.9-2.43-23.84-2.5-23.58-4.2-47.29-7.73-70.71-4.61-30.59-9.1-61.22-14.74-91.67-5.69-30.69-11.97-61.24-19.57-91.49-9.74-38.8-21.32-77-40.2-112.58-5.17-9.74-11.13-18.92-18.26-27.33-.96-1.14-1.96-2.28-3.08-3.25-1.66-1.43-3.15-1.49-3.82,1.02-.26.96-.45,1.95-.61,2.93-4.01,24.89-14.12,47.22-28.47,67.74-12.16,17.39-27.04,31.98-45,43.36-6.11,3.87-12.27,7.68-18.41,11.52-3.41,2.13-7.04,3.74-10.9,4.88-19.16,5.66-38.24,11.58-57.47,16.98-13.6,3.82-27.19,3.04-40.42-2.08-19.53-7.56-37.81-4.55-54.61,7.23-9.4,6.59-17.39,14.98-24.99,23.56-19.38,21.89-39.96,42.61-60.6,63.29-6.17,6.19-12.17,12.55-18.34,18.75-2.39,2.4-3.79,5-4.05,8.51-2.17,29.12-4.48,58.23-6.73,87.35-.13,1.72-.44,3.5.68,5.07,2.34.83,2.97-1.13,3.96-2.46,8.63-11.64,17.63-22.98,27.77-33.34,12.18-12.45,26.07-22.41,42.47-28.71,5.41-2.08,10.88-3.58,16.63-4.2,16.91-1.82,33.52-.64,49.22,6.19,12.84,5.58,21.76,15.13,27.4,28.22,8.07,18.72,9.26,38.71,12.06,58.42,1.23,8.66,2.56,17.28,4.47,25.81,5.4,24.19,17.61,44.84,33.01,63.89,26.77,33.11,59.23,59.84,93.74,84.37,40.19,28.58,83.17,52.38,126.99,74.77,5.49,2.8,10.72,5.98,16.7,7.77,2.98.89,5.67,2.76,8.32,4.64-7.58.24-14.8-1.31-21.92-3.12-24.9-6.33-49.51-13.68-73.63-22.58-16.66-6.15-32.35-14.45-48.47-21.81-3.78-1.73-7.12-2.26-11.41-1.17-13.56,3.45-27.47,5.13-41.41,6.12-10.95.78-21.9,1.52-32.86,2.12-30.88,1.7-61.29-1.76-91.58-7.15-57.35-10.22-110.02-32.12-158.38-64.32-44.34-29.53-80.83-66.96-111.98-110.21-29-40.27-49.43-84.27-62.68-131.77-9.97-35.73-15.66-72.11-14.86-109.39.43-19.96.01-39.88,2.71-59.79,4.62-34.07,12.36-67.36,25.67-98.98,12.96-30.79,26.62-61.36,46.19-88.86,22.14-31.1,47.83-58.8,76.74-83.67,44.77-38.49,95.42-66.25,151.88-83.26,25.6-7.71,51.84-12.68,78.44-15.61,26.4-2.91,52.8-1.7,79.26-.53,28.64,1.27,56.33,7.22,83.89,14.46,5.26,1.38,10.82,1.76,16.27,2.24,30.93,2.71,61.24,8.49,90.88,17.79,11.19,3.51,22.57,6.41,33.43,10.94,7.91,3.3,14.97,8.32,23.57,10.19-.21.51-.42,1.02-.62,1.53ZM521.27,735.31c8.44-5.4,14.91-12.01,20.79-19.02,12.99-15.5,26.83-30.19,41.04-44.55,4.74-4.79,9.45-9.58,13.61-14.91,5.53-7.1,11.83-13.59,18.95-19.03,7.57-5.77,16.33-10.36,25.67-11.46,11.57-1.36,23.14-.62,34.1,5.5,13.69,7.64,28.73,7.77,43.61,3.68,19.25-5.3,38.28-11.83,56.24-20.26,19.04-8.93,34.89-23.11,47.64-40.06,5.53-7.34,9.6-15.74,13.46-24.16,5.16-11.24,4.67-12.32-6.92-16.73-25.59-9.73-52.14-15.2-79.33-17.43-23.44-1.92-47.02-1.73-70.03,3.24-31.34,6.77-59.8,19.54-83.97,41.7-20.87,19.13-36.31,41.78-47.84,67.12-14,30.77-23.17,63.13-27.6,96.72-.38,2.87-1.19,5.85.6,9.65Z"/>
      <path class="cls-2" d="M612.21,203.21c-13.6,1.17-27.29-1.9-40.5-7.95-26.88-12.33-43.65-33.36-52.45-61.05-5.77-18.17-6.09-36.97-3.31-55.59,1.84-12.39,7.14-23.87,14.61-34.1,5.48-7.5,12.16-13.94,19.15-19.97,6.23-5.36,13.02-9.9,20.97-12.74,14.33-5.11,28.43-10.19,44.05-10.7,11.44-.37,22.77-2.13,34.27-.29,9.52,1.52,17.86,6.22,26.84,9.17,2.34.77,2.08,2.35,1.01,4.14-6.03,10.06-12.07,20.12-18.01,30.23-1.59,2.71-3.49,3.29-6.17,1.74-.86-.5-1.84-.77-2.73-1.21-20.06-9.92-40.33-8.74-59.9.55-19.66,9.32-31.25,25.02-32.23,47.47-.76,17.39,2.32,33.69,12.96,48.06,4.95,6.69,10.87,12.53,17.25,17.57,5.03,3.97,12.06,4.42,18.48,5.38,18.46,2.78,35.69-1.53,52.18-9.45,3.08-1.48,5.6-4.13,8.36-6.25,1.85-1.42,1.95-3.38,1.56-5.43-1.47-7.59-2.86-15.2-4.51-22.75-1.12-5.14-2.08-5.69-7.25-4.67-7.09,1.4-14.12,3.15-21.24,4.37-6.24,1.07-6.95.52-8.27-5.4-1.85-8.28-3.61-16.58-5.12-24.92-1.18-6.48-.98-6.5,5.14-7.63,10.3-1.91,20.6-3.8,30.89-5.78,10.53-2.02,21.07-4.03,31.56-6.28,3.71-.8,5.3-.08,6.06,3.97,5.26,27.92,10.36,55.88,16.47,83.62,1.83,8.3-.36,12.49-6.96,17.02-18.44,12.67-39.14,19.65-60.32,25.64-10.43,2.95-21.11,3.68-32.83,3.22Z"/>
      <path class="cls-2" d="M400.2,73.83c7.14,10.89,14.07,21.46,20.93,31.93-1.97,3.07-4.81,4.26-7.26,5.88-19.79,13.07-39.64,26.05-59.48,39.06-1.46.96-2.9,1.95-4.38,2.88-1.85,1.17-2.09,2.6-.88,4.39,5.89,8.67,11.75,17.37,17.65,26.04,1.22,1.8,2.74,1.85,4.49.64,2.26-1.56,4.59-3.02,6.87-4.55,18.45-12.39,36.89-24.79,55.33-37.18,4.45-2.99,4.53-3.06,7.34,1.2,5.23,7.91,10.21,16,15.59,23.81,2.25,3.26,1.78,4.9-1.49,7.03-19.88,12.93-39.64,26.06-59.43,39.12-1.25.83-2.48,1.68-3.76,2.45-1.87,1.13-2.19,2.49-.95,4.33,6.85,10.1,13.66,20.21,20.81,30.79,7.23-4.76,14.08-9.25,20.91-13.76,17.3-11.41,34.58-22.84,51.88-34.25,5.31-3.5,5.36-3.49,9.01,2.03,4.68,7.08,9.33,14.19,13.93,21.32,3.3,5.12,3.31,5.23-1.66,8.56-23.45,15.68-46.93,31.33-70.42,46.94-10.4,6.91-20.86,13.72-31.31,20.55-5.77,3.77-5.82,3.76-9.59-1.89-24.82-37.17-49.62-74.34-74.42-111.52-8.73-13.09-17.37-26.23-26.19-39.25-1.93-2.85-2.02-4.51,1.12-6.58,34.96-23.12,69.84-46.36,105.36-69.99Z"/>
      <path class="cls-1" d="M1218.11,593.8c2.45-1.42,4.72-.87,6.88-.89,23.46-.21,46.92-.3,70.38-.53,11.72-.11,10.16,1.74,14.18-10.64,7.18-22.06,14.2-44.18,21.33-66.25.6-1.85.79-3.95,2.68-5.66,2.08,2.01,2.41,4.78,3.23,7.24,7.79,23.44,15.51,46.9,23.26,70.35,1.83,5.53,1.86,5.64,7.84,5.63,24.46-.01,48.92-.12,73.38-.13,2.67,0,5.41-.57,8.86.84-2.32,1.93-4.2,3.72-6.3,5.21-19.69,14.05-39.42,28.06-59.14,42.07-5.84,4.15-5.93,4.35-3.8,11.05,7.33,23.06,14.66,46.13,21.95,69.2.8,2.55,1.38,5.17,2.48,9.35-6.32-4.51-11.37-8.03-16.34-11.67-16.5-12.08-32.96-24.22-49.45-36.32-5.71-4.19-5.72-4.15-11.58.08-19.42,13.99-38.85,27.97-58.29,41.94-2.21,1.59-4.51,3.06-7.27,4.93-.76-2.38.23-4.1.78-5.78,7.6-23.24,15.23-46.47,22.88-69.69,2.58-7.81,2.68-7.88-4.04-12.79-20.15-14.71-40.34-29.35-60.51-44.04-1.18-.86-2.71-1.37-3.41-3.5Z"/>
      <path class="cls-2" d="M936.29,222.07c-14.02-3.14-27.84-6.3-41.7-9.28-3.07-.66-3.77-2.47-4.2-5.19-1.83-11.58-4.02-23.11-5.73-34.71-.53-3.57-1.96-5.1-5.44-5.85-21.46-4.63-42.89-9.38-64.29-14.28-3.75-.86-6.04.02-8.11,3.23-6.1,9.43-12.57,18.63-18.63,28.08-2.06,3.22-4.1,4.1-7.93,3.15-12.1-2.99-24.33-5.5-36.5-8.22-.95-.21-1.99-.35-2.59-1.52-.21-2.16,1.68-3.36,2.8-4.86,38.85-52.32,76.97-105.16,114.5-158.43,3.34-4.75,6.18-6.78,12.15-4.8,6.83,2.26,14.04,3.54,21.17,4.68,4.45.71,6.12,2.71,6.92,7.1,4.5,24.54,9.32,49.02,14.07,73.51,7.85,40.41,15.74,80.82,23.56,121.23.32,1.66,1.07,3.36-.03,6.17ZM867.83,67.49c-.61-.11-1.22-.23-1.83-.34-11.09,16.47-22.2,32.93-33.25,49.43-1.77,2.64-.6,3.96,2.32,4.57,9.74,2.01,19.43,4.23,29.18,6.22,4.03.82,8,2.29,13.16,2.21-3.26-21.11-6.42-41.6-9.58-62.09Z"/>
      <path class="cls-1" d="M186.15,729.1c-3.19-.36-5.27-2.72-7.65-4.44-19.21-13.89-38.36-27.87-57.55-41.78-5.7-4.13-5.75-4.06-11.52.1-19.84,14.3-39.67,28.61-59.53,42.89-1.58,1.13-2.93,2.78-5.13,2.83-1.56-1.3-.6-2.71-.17-4.03,7.76-23.98,15.49-47.96,23.34-71.91,2.39-7.28,2.55-7.24-3.59-11.63-19.88-14.24-39.78-28.46-59.65-42.71-1.59-1.14-3.46-2.02-4.69-4.34,2.41-1.59,5.12-.96,7.59-.98,24.22-.19,48.44-.28,72.66-.4q7.51-.04,9.77-7.18c7.06-22.1,14.13-44.21,21.22-66.3.99-3.07,2.12-6.09,3.38-9.7,3.03,2.62,3.22,5.95,4.15,8.81,7.34,22.54,14.58,45.11,21.8,67.69,2.49,7.81,2.21,7,9.91,7,23.97,0,47.94-.07,71.91-.08,2.62,0,5.24.22,8.24.35-1.3,3.2-3.68,4.24-5.59,5.62-19.62,14.17-39.31,28.27-58.97,42.39q-6.1,4.38-3.74,11.58c7.52,23.01,15.02,46.02,22.55,69.03.77,2.37,1.83,4.67,1.22,7.26l.07-.08Z"/>
      <path class="cls-2" d="M1101.51,302.42c-13.5,5.48-27.3,6.55-40.2,3.11-30.7-8.18-55.72-25.23-72.06-53.23-7.14-12.23-11.21-25.51-10.67-39.93.15-3.98-.2-7.98-.04-11.96,1.07-27.65,13-50.14,32.61-69.14,13-12.59,27.79-21.65,45.46-26.1,11.93-3,23.94-1.85,35.69-.4,25.9,3.2,47.96,14.78,65.52,34.21,10.18,11.27,17.64,24.07,19.6,39.61.43,3.42-.39,4.59-3.51,4.83-11.67.9-23.34,1.82-35.01,2.73-1.39.11-2.42-.46-2.87-1.82-.39-1.18-.7-2.39-1.04-3.59-6.29-21.72-25.22-36.37-47.69-37.51-19.77-1-35.44,7.34-48.08,21.41-16.29,18.15-23.09,39.26-16.72,63.65,3.28,12.53,10.94,21.88,21.65,28.37,12.34,7.48,25.86,10.43,40.18,6.12,2.43-.73,3.67-.44,4.5,2.04,4.16,12.48,8.4,24.92,12.69,37.62Z"/>
      <path class="cls-2" d="M1228.54,198.04c4.07,5.34,7.41,9.63,10.66,13.99,5.22,7.01,10.01,14.36,15.67,20.99,4.03,4.72,3.85,8.74,1.5,14.06-8.97,20.31-17.53,40.79-26.23,61.21-.86,2.03-2.25,3.9-2.07,7.09,7.88-.03,15.63-1.36,23.4-2.11,18.37-1.75,36.73-3.52,55.09-5.32,2.84-.28,5.22-.26,7.21,2.49,8.6,11.92,17.39,23.69,26.61,36.18-6.61,1.55-12.72,1.48-18.72,1.89-20.64,1.41-41.3,2.55-61.95,3.82-12.93.79-25.86,1.77-38.8,2.36-7.15.32-13.36,2.04-19.28,6.55-17.85,13.62-36.11,26.71-54.23,39.99-5.2,3.81-5.26,3.78-9.17-1.42-5.54-7.38-11.05-14.79-16.56-22.2-3.92-5.27-3.93-5.31,1.11-9.1,18.53-13.97,37.01-28.02,55.68-41.8,4.23-3.12,6.78-6.79,8.51-11.73,12.99-37.2,26.24-74.32,39.41-111.46.5-1.4,1.09-2.77,2.15-5.45Z"/>
      <path class="cls-2" d="M300.26,423.21c-2.63-.64-4.13-2.42-5.87-3.77-22.46-17.45-44.88-34.94-67.3-52.44-24.19-18.89-48.35-37.8-72.53-56.7-1.38-1.08-2.72-2.2-4.14-3.21-1.99-1.43-2.33-2.81-.69-4.92,7.04-9.06,14.03-18.16,20.85-27.39,2.2-2.97,3.92-2.83,6.66-.68,14.7,11.57,29.53,22.98,44.31,34.45,22.46,17.44,44.91,34.9,67.37,52.35.79.61,1.57,1.24,2.37,1.82,4.24,3.07,4.3,3.12,7.57-1.09,11.94-15.37,23.83-30.77,35.74-46.16,2.44-3.16,4.93-6.28,7.34-9.46,1.31-1.73,2.64-1.98,4.37-.57,8.69,7.1,17.4,14.19,26.12,21.25,2.23,1.81,1.21,3.44-.1,5.12-3.54,4.51-7.08,9.03-10.62,13.55-19.2,24.57-38.4,49.15-57.62,73.7-1.19,1.52-2.15,3.33-3.84,4.14Z"/>
      <path class="cls-1" d="M770.94,1008.9c7.57,1.16,12.81,5.88,18.73,9.22,23.47,13.25,47.04,26.3,70.91,38.83,14.84,7.79,30.55,13.57,45.79,20.42,1.56.7,3.28,1.82,4.84.4,1.52-1.39.64-3.34.23-4.95-3.2-12.82-6.18-25.71-9.81-38.41-13.57-47.51-27.79-94.84-45.31-141.08-10.61-28-21.77-55.79-34.96-82.71-1.82-3.73-3.55-7.5-4.27-12.39,8.89,4.23,17.8,8.41,26.65,12.72,2.42,1.18,3.11,3.82,4.15,6.06,22.42,48.26,41.7,97.77,57.5,148.56,8.45,27.15,15.17,54.83,23.07,82.16,6.24,21.6,10.19,43.74,16.35,65.35.33,1.16.77,2.37.2,3.71-1.81,1.47-3.27-.15-4.66-.85-26.49-13.41-53.13-26.59-78.9-41.33-17.1-9.78-32.88-21.71-49.25-32.68-13.48-9.03-26.9-18.08-38.29-29.76-1.03-1.05-1.99-2.17-2.98-3.26Z"/>
      <path class="cls-2" d="M275.93,1128.44c-.25-18.03,8.2-32.08,20.79-43.86,11.97-11.2,26.65-16.11,42.97-16.34,7.99-.11,15.24,2.72,22.19,6,22.31,10.55,37.8,27.04,41.02,52.27,2.41,18.89-4.27,35.29-17.55,48.97-7.01,7.22-14.53,13.51-24.41,16.67-22.64,7.24-42.76,2.83-60.66-12.47-3.03-2.59-5.77-5.51-8.58-8.35-10.31-10.42-15.03-23.21-15.76-37.65-.09-1.74-.01-3.49-.01-5.24ZM301.26,1133.49c-.47,16.27,8.41,26.2,20.24,32.76,12.15,6.74,25.24,7.22,37.08-2.35,10.78-8.71,19.16-18.37,19.2-33.57.05-20.68-20.78-36.29-36.55-36.96-18.15-.77-41.89,19.14-39.97,40.12Z"/>
      <path class="cls-2" d="M200.21,934.97c.09,1.83-.76,2.38-1.69,2.76-5.31,2.17-10.65,4.26-15.93,6.48-2.32.97-3.2-.42-3.94-2.12-2-4.57-3.97-9.15-5.93-13.74-3.33-7.8-6.51-15.66-10.01-23.38-2.89-6.38-3.06-6.31-9.28-3.71-3.91,1.64-7.74,3.5-11.74,4.87-3.82,1.31-4.27,3.3-2.72,6.8,5.65,12.77,11.09,25.63,16.6,38.46.89,2.06,1.65,4.19,2.65,6.19,1.02,2.04.43,3.29-1.54,4.14-5.03,2.19-10.05,4.38-15.07,6.6-2.89,1.27-4.56.43-5.72-2.56-2.43-6.27-5.18-12.43-7.75-18.65-6.38-15.44-12.74-30.89-19.11-46.33-3.31-8.03-2.9-6.59,3.93-9.68,14.08-6.37,28.49-12,42.73-18.01,18.15-7.65,36.55-14.7,54.4-23.03,4.2-1.96,4.33-1.93,6.29,2.69,9.04,21.35,17.97,42.75,27.06,64.09,1.31,3.07,1.44,4.97-2.24,6.26-4.7,1.65-9.29,3.63-13.81,5.75-2.92,1.37-4.35.89-5.6-2.24-5.03-12.49-10.4-24.84-15.5-37.3-4.21-10.29-3.65-8.45-12.07-5.01-3.86,1.58-9.31,1.82-11.02,5.54-1.74,3.79,2.06,7.84,3.55,11.7,3.76,9.77,7.87,19.41,11.83,29.11.66,1.61,1.23,3.24,1.64,4.32Z"/>
      <path class="cls-2" d="M940.02,1298.77c-18.88,1.68-33.18-10.11-39.71-25.39-9.7-22.74-17.36-46.25-26.75-69.1-1.26-3.07-.6-4.51,2.41-5.54,5.19-1.77,10.43-3.49,15.42-5.74,3.81-1.71,5.14-.42,6.4,3.1,5.53,15.51,11.28,30.94,16.98,46.39,2.07,5.62,4.14,11.24,6.35,16.8,3.63,9.1,10.28,14.48,20.09,15.69,9.99,1.23,17.72-2.93,22.95-11.05,4.59-7.13,4.34-15.18,1.46-23-7.51-20.37-15.17-40.68-22.72-61.03-1.92-5.16-1.86-5.22,3.37-7.34,4.85-1.97,9.76-3.81,14.59-5.83,2.54-1.06,3.91-.82,4.99,2.14,8.6,23.68,17.93,47.11,25.93,70.99,6.16,18.39-.4,38.31-17.67,48.86-10.7,6.53-21.91,10.75-34.1,10.05Z"/>
      <path class="cls-2" d="M491.41,1293.14c-8.21-4.19-16.61-8.36-24.88-12.76-2.9-1.54-2.31-4.78-2.53-7.42-1.22-14.42-2.33-28.85-3.49-43.28-.1-1.24-.26-2.47-.38-3.66-2.81-1.42-4.28.92-5.98,2.03-11.69,7.66-23.41,15.29-34.87,23.28-3.79,2.64-6.91,2.86-10.91.75-6.38-3.37-13-6.28-19.79-9.52,1.1-3.16,3.96-3.85,6.13-5.13,16.57-9.74,33.21-19.34,49.82-29.02,6.09-3.55,6.14-3.59,5.11-10.54-2.73-18.51-5.53-37.01-8.3-55.52-.18-1.23-.45-2.46.58-4.4,8.36,4.15,16.81,8.27,25.16,12.55,2.37,1.22,1.95,3.84,2.14,6.04,1.16,13.67,2.29,27.35,3.43,40.9,2.86,1.72,4.39-.55,6.12-1.68,10.02-6.56,20.06-13.12,29.93-19.9,3.21-2.21,5.82-2.85,9.49-.76,6.9,3.93,14.14,7.28,21.62,11.06-1.08,2.3-2.99,2.9-4.57,3.8-15.61,8.91-31.24,17.77-46.84,26.69-5.51,3.15-5.4,3.19-4.6,9.17,2.8,21.02,5.54,42.05,8.29,63.08.15,1.18.76,2.42-.66,4.23Z"/>
      <path class="cls-2" d="M1066.37,1112.11c18.21-2.36,36.35,24.22,30.59,44.47-2.04,7.15-6.92,12.65-12.52,17.38-6.68,5.64-13.73,10.84-21.18,15.42-3.33,2.05-3.8,3.78-1.47,7.07,6.79,9.57,13.3,19.34,19.84,29.08,3.19,4.76,3.13,4.85-1.5,8.02-3.91,2.68-8.02,5.09-11.82,7.92-3.09,2.3-5.01,2.13-7.19-1.29-4.83-7.57-10.04-14.91-15.09-22.34-14.73-21.69-29.44-43.39-44.18-65.06-4.21-6.19-4.19-5.29,2.04-9.41,13.33-8.81,26.33-18.11,40.26-25.99,6.7-3.79,13.84-5.47,22.22-5.28ZM1071.64,1151.46c.24-11.67-10.02-17.97-19.66-13.62-6.39,2.88-11.94,7.24-17.84,10.97-2.22,1.4-2.27,3.1-.95,5.03,3.96,5.76,7.94,11.5,11.97,17.21,1.21,1.71,2.63,3.18,4.92,1.5,5.83-4.28,12.15-7.86,17.52-12.8,3-2.76,3.96-6.21,4.05-8.3Z"/>
      <path class="cls-2" d="M1092.37,1078.89c17.22-15.64,33.85-30.74,50.47-45.83,1.3-1.18,2.61-2.49,4.43-2.62,9.01-.62,18.01-1.11,25.96,4.48,5.8,4.08,10.71,9.04,14.08,15.27,4.83,8.92,5.12,17.96.37,27.19-4.85,9.43-11.11,17.67-18.72,25.05-7.54,7.32-7.37,7.47.47,14.8,6.93,6.48,13.85,12.97,20.73,19.49,1.61,1.52,3.05,3.22,4.9,5.18-5.39,5.61-10.57,10.96-15.7,16.35-1.52,1.59-2.86,1.62-4.43.06-2.12-2.11-4.36-4.11-6.53-6.18-23.64-22.61-47.27-45.21-70.89-67.84-1.61-1.54-3.08-3.23-5.16-5.41ZM1165.1,1068.26c-.09-7.47-5.93-12.91-13.42-12.89-4.34.01-7.76,1.96-10.79,4.52-4.37,3.7-8.5,7.7-12.52,11.79-3.03,3.07-2.88,4.12.41,7.4,2.82,2.82,5.79,5.49,8.7,8.22q8.12,7.63,15.93.16c1.8-1.72,3.79-3.3,5.34-5.23,3.28-4.09,6.4-8.33,6.36-13.96Z"/>
      <path class="cls-2" d="M300.01,1019.16c1.14,22-21.72,40.45-44.16,34.23-5.69-1.57-10.82-4.95-14.99-9.53-6.24-6.84-11.9-14.12-17.38-21.57-3.69-5.02-3.76-5.06-8.74-1.65-9.48,6.49-18.87,13.09-28.35,19.57-4.34,2.97-4.44,2.92-7.57-1.37-2.79-3.83-5.28-7.91-8.27-11.57-2.51-3.07-2.13-4.83,1.12-7.06,11.52-7.92,22.85-16.11,34.25-24.2,17.51-12.42,35.02-24.84,52.55-37.24,4.7-3.32,4.88-3.38,7.99,1.17,8.88,12.97,19.07,25.02,27.08,38.61,3.85,6.54,7.06,13.23,6.47,20.6ZM261.2,1028.4c10.64.04,18.51-10.28,14.16-18.49-3.48-6.56-7.39-12.93-12.21-18.69-2.01-2.41-3.74-2.71-6.25-.85-5.2,3.83-10.37,7.75-15.86,11.14-3.71,2.29-3.08,4.49-1.05,7.24,4.28,5.8,8.53,11.6,13.7,16.69,2.32,2.29,4.81,3.41,7.5,2.96Z"/>
      <path class="cls-2" d="M841.61,1215.85c-4.38,6.53-8.33,12.24-12.09,18.08-1.56,2.42-3.01,2.58-5.49,1.18-7.13-4-14.67-4.42-22.4-1.8-6.39,2.17-10.79,7.15-10.61,12.05.2,5.75,3.71,9.56,10.81,11.73,7.9,2.41,16.17,2.95,24.21,4.67,19.77,4.23,25.7,16.01,25.62,32.99-.09,16.97-9.42,29.77-29.07,35.04-14.83,3.97-30.08,4.79-44.43-2.96-.88-.47-1.74-.98-2.58-1.52-4.1-2.66-4.15-2.71-1.27-6.74,3.05-4.26,6.18-8.46,9.35-12.63,3.08-4.04,3.29-4.25,7.5-1.33,8.31,5.76,17.09,6.26,26.24,2.84,6.46-2.41,9.55-6.7,9.34-12.09-.23-5.86-4.33-10.64-11.14-12.25-6.78-1.6-13.65-2.87-20.51-4.05-7.49-1.29-14.44-3.62-20.48-8.45-4.96-3.97-7.79-9.15-8.56-15.22-1.2-9.48-1.55-19.09,4.75-27.23,7.58-9.78,17.32-16.38,29.77-18.31,13.9-2.16,27.26-.27,41.03,5.99Z"/>
      <path class="cls-2" d="M1208.97,931.24c3.68-8.73,7.3-16.93,10.58-25.25,1.17-2.97,3.38-3.25,5.89-3.59,12.61-1.7,25.22-3.43,37.83-5.14,8.12-1.11,8.39-1.68,3.47-8.25-7.48-9.99-14.91-20.03-22.59-29.88-2.57-3.29-3.47-6.11-1.38-10.1,3.44-6.59,5.2-13.99,9.24-20.49,2.96,2.2,4.35,5.19,6.18,7.82,11.94,17.24,23.89,34.47,35.7,51.8,2.2,3.23,4.77,5.46,8.46,6.91,12.31,4.84,24.52,9.93,36.73,15,4.92,2.04,4.94,2.16,3.02,7.02-1.92,4.88-4.24,9.61-5.89,14.57-1.19,3.58-2.88,3.96-6.08,2.6-11.48-4.88-23.11-9.43-34.54-14.41-5.02-2.19-9.81-2.7-15.22-1.57-21.48,4.47-43.03,8.62-64.57,12.83-1.89.37-3.81,1.14-6.81.13Z"/>
      <path class="cls-2" d="M561.94,1193.78c9.97,2.07,18.66,4,27.41,5.64,3.08.58,3.87,2.58,4.63,5.08,3.79,12.39,7.68,24.75,11.52,37.13.59,1.89.86,3.9,2.37,5.5,2.98-.51,4.33-3.14,6.15-5.06,8.59-9.03,17.2-18.05,25.52-27.33,2.71-3.02,5.33-3.86,9.15-2.84,7.4,1.97,14.89,3.62,22.42,5.43-.82,3.25-3.12,4.51-4.81,6.19-15.06,14.91-30.11,29.83-45.34,44.58-3.54,3.43-5.82,7.04-6.76,12.01-2.41,12.72-5.48,25.32-8.06,38.01-.68,3.35-1.68,4.77-5.41,3.77-5.28-1.43-10.69-2.46-16.09-3.34-3.19-.52-4.05-1.69-3.41-4.96,2.42-12.47,4.87-24.94,8.17-37.21,1.29-4.81.97-9.05-.89-13.71-8.6-21.51-16.9-43.15-25.29-64.75-.35-.89-.57-1.84-1.28-4.12Z"/>
      <path class="cls-2" d="M1268.22,1053.88c-1.19-.72-2.26-1.34-3.31-2.01-30.37-19.22-60.75-38.42-91.1-57.67-4.29-2.72-4.26-2.84-1.48-7.37,2.48-4.04,5.07-8.01,7.56-12.05,3.84-6.24,3.7-5,8.4-2.03,16.46,10.39,32.9,20.83,49.35,31.25,7.17,4.54,14.42,8.97,21.44,13.72,2.98,2.02,4.51,1.76,6.41-1.38,6.47-10.67,13.19-21.19,19.86-31.73,3.4-5.38,3.45-5.36,8.97-1.84,3.57,2.29,7,4.83,10.71,6.87,3.28,1.8,3.27,3.48,1.32,6.46-7.78,11.91-15.3,23.98-22.92,36-4.01,6.33-7.99,12.67-11.99,19-.78,1.24-1.55,2.51-3.22,2.77Z"/>
      <polygon class="cls-1" points="186.08 729.18 186.55 729.5 186.15 729.1 186.08 729.18"/>
    </g>
  </g>
</svg>